# xmcd
#
# Track frame offsets:
#	150
#	23125
#	38025
#	61325
#	79675
#	104600
#	121350
#	139358
#	156783
#	175925
#
# Disc length: 2622 seconds
#
# Revision: 917515
# Processed by: cddbd v1.5.2PL0 Copyright (c) Steve Scherf et al.
# Submitted via: EZCDAudioConverter 8.0.2.1
#
DISCID=820a3c0a
DTITLE=Thái Châu, Hương Lan, Chế Linh - Nối Lại Tình Xưa
DYEAR=1993
DGENRE=Contemporary Pop
TTITLE0=Hương Lan - Máu chảy về tim
TTITLE1=Thái Châu - Trăm mến ngàn thương
TTITLE2=Hương Lan - Thôn trăng
TTITLE3=Chế Linh - Chuyện ba mùa mưa
TTITLE4=Thái Châu - Bườn ơi ta xin chào mi
TTITLE5=Thái Châu - Chiều
TTITLE6=Hương Lan - E ngại
TTITLE7=Chế Linh - Những lời này cho em
TTITLE8=Hương Lan - Mình mất nhau mùa đông
TTITLE9=Hương Lan - Một thời để nhớ
EXTD=
EXTT0=
EXTT1=
EXTT2=
EXTT3=
EXTT4=
EXTT5=
EXTT6=
EXTT7=
EXTT8=
EXTT9=
PLAYORDER=
